<svg xmlns="http://www.w3.org/2000/svg" version="1.1" x="0px" y="0px" viewBox="0 0 16 16"
     style="enable-background:new 0 0 16 16;" xml:space="preserve">
    <g transform="matrix(0.113074,0,0,0.113074,-0.565371,-0.305273)">
        <path d="M112.5,21.1C102.5,21.1 93.3,25.5 87.2,32.7L41.9,78L29.1,65.2C26.7,62.8 25.5,59.6 25.9,56C25.9,48.4 31.9,42.4 39.5,42.4C43.1,42.4 45.9,43.6 48.3,45.6L51.1,48.4L65.5,34L61.5,30C55.5,24.4 47.5,20.8 38.6,20.8C20.3,20.7 5,35.9 5,54.4C5,62.8 8.2,70.8 13.4,76.5L42.3,105.8L102.8,45.3C105.2,42.9 108.4,41.7 111.6,41.7C119.2,41.7 125.2,47.7 125.2,55.3C125.2,58.9 124,61.7 122,64.1L82,104.1C80.4,105.7 78.4,106.5 76,106.5C73.6,106.5 71.6,105.3 70,103.7L66.8,100.5L52.4,114.9L55.2,117.7C60.4,122.9 67.6,126.1 75.6,126.1C83.6,126.1 90.8,122.9 96,117.7L138.1,75.6C143.3,70 146.5,62 146.5,53.1C146.2,36.3 130.9,21.1 112.5,21.1Z" style="fill-rule:nonzero;"/>
    </g>
</svg>
