<?xml version="1.0" encoding="utf-8"?>
<!-- Generator: Adobe Illustrator 19.2.1, SVG Export Plug-In . SVG Version: 6.00 Build 0)  -->
<svg version="1.1" id="Layer_1" xmlns="http://www.w3.org/2000/svg" xmlns:xlink="http://www.w3.org/1999/xlink" x="0px" y="0px"
	 viewBox="0 0 40 30" style="enable-background:new 0 0 40 30;" xml:space="preserve">
<style type="text/css">
	.st0{fill:#00AAFF;}
</style>
<path class="st0" d="M30.3,0.1c-2.8,0-5.4,1.2-7.1,3.2L10.5,16l-3.6-3.6c-0.6-0.7-1-1.6-1-2.5C5.9,7.7,7.6,6,9.8,6
	c1,0,1.8,0.3,2.5,1c0.2,0.2,0.4,0.4,0.4,0.4l0.5,0.5l3.1-3.1l0.9-0.9l0,0l0,0l-0.8-0.8c-0.1-0.1-0.2-0.2-0.3-0.3l0,0l0,0
	C14.3,1,12,0.1,9.5,0.1C4.3,0.1,0,4.3,0,9.5c0,2.4,0.9,4.6,2.3,6.3l8.1,8.2l17-17c0.7-0.6,1.6-1,2.5-1c2.1,0,3.8,1.7,3.8,3.8
	c0,1-0.3,1.8-1,2.5L21.6,23.6c-0.4,0.5-1.1,0.7-1.7,0.7c-0.7,0-1.3-0.3-1.7-0.7l-0.9-0.8l-4,4l0.8,0.8l0,0c1.5,1.5,3.5,2.4,5.7,2.4
	l0,0l0,0c2.2,0,4.2-0.9,5.7-2.4l0,0l0,0l11.8-11.8c1.4-1.6,2.3-3.9,2.3-6.3C39.8,4.3,35.5,0.1,30.3,0.1z"/>
</svg>
