<svg width="137" height="30" viewBox="0 0 137 30" xmlns="http://www.w3.org/2000/svg"><title>logo</title><path d="M49.608 17.955V.255h3.75v6.402a13.467 13.467 0 0 1 2.564-.26c2.32 0 4.102.72 5.347 2.163 1.245 1.441 1.868 3.517 1.868 6.226 0 1.491-.182 2.805-.545 3.942-.364 1.137-.794 1.999-1.293 2.587a6.003 6.003 0 0 1-1.785 1.436c-.692.37-1.296.599-1.806.686-.51.087-1.025.13-1.541.13-2.228 0-3.879-.549-4.952-1.647-1.073-1.099-1.609-2.421-1.607-3.967v.002zm3.75.376c0 1.198.938 1.797 2.812 1.797 1.19 0 2.023-.433 2.5-1.3.477-.865.716-2.284.718-4.256 0-1.873-.307-3.184-.922-3.93-.615-.748-1.507-1.12-2.678-1.12a9.568 9.568 0 0 0-2.425.278l-.004 8.53zM63.523 6.657h3.985l3.491 11.587 3.432-11.587h3.753l-5.721 17.056c-.834 2.421-1.739 4.053-2.715 4.895-.975.843-1.987 1.264-3.035 1.263a6.548 6.548 0 0 1-2.364-.463v-3.38c.554.26 1.157.398 1.769.406 1.078 0 2.08-1.344 3.005-4.03l-5.6-15.747zm16.652 16.649V8.22c2.288-1.216 4.673-1.824 7.154-1.824 2.175 0 3.876.606 5.102 1.818 1.226 1.212 1.84 2.909 1.84 5.09v10h-3.753V12.962a4.62 4.62 0 0 0-.115-1.116 2.926 2.926 0 0 0-.458-.937c-.228-.325-.6-.57-1.12-.733-.52-.165-1.185-.248-2.002-.248-.971.007-1.94.105-2.893.294v13.085h-3.755zm16.424-8.52c0-2.71.62-4.785 1.86-6.226 1.24-1.442 3.025-2.163 5.354-2.163.871.003 1.74.09 2.594.26V.255h3.75v17.7c0 1.533-.542 2.852-1.624 3.957-1.082 1.104-2.735 1.655-4.96 1.652a9.274 9.274 0 0 1-1.548-.13c-.514-.088-1.113-.315-1.803-.686a6.351 6.351 0 0 1-1.791-1.436c-.507-.588-.939-1.45-1.296-2.587-.357-1.137-.534-2.451-.532-3.942m3.75-.213c0 1.96.24 3.377.717 4.249.48.872 1.311 1.307 2.503 1.307 1.89 0 2.837-.599 2.837-1.797V9.802a11.294 11.294 0 0 0-2.471-.278c-1.172 0-2.06.374-2.672 1.119-.613.745-.91 2.057-.91 3.93m12.17.587c0-2.672.556-4.806 1.67-6.402 1.112-1.596 2.88-2.395 5.301-2.397 2.288 0 4.02.777 5.193 2.33 1.175 1.553 1.762 3.464 1.762 5.734 0 .935-.022 1.623-.06 2.066h-10.117c.102 1.444.506 2.41 1.212 2.9.707.488 1.625.732 2.754.733a11.71 11.71 0 0 0 5.31-1.281v3.223c-1.73.999-3.687 1.498-5.87 1.498a10.16 10.16 0 0 1-1.955-.179 6.171 6.171 0 0 1-1.896-.75 6.04 6.04 0 0 1-1.688-1.449c-.473-.587-.859-1.4-1.157-2.436-.299-1.036-.45-2.233-.455-3.591m3.752-1.434h6.284c-.102-1.142-.42-2.106-.954-2.893-.535-.787-1.269-1.18-2.203-1.18-.937 0-1.667.322-2.189.963s-.834 1.678-.938 3.11m12.875 9.581V8.139a13.9 13.9 0 0 1 1.052-.46c.446-.177 1.348-.43 2.7-.758a18.29 18.29 0 0 1 4.03-.524v3.438c-1.567.021-2.91.206-4.03.554v12.917h-3.752zM30.252.061A9.427 9.427 0 0 0 23.15 3.28L10.485 15.923 6.862 12.3a3.733 3.733 0 0 1-.954-2.541A3.806 3.806 0 0 1 9.74 5.95a3.71 3.71 0 0 1 2.515.95c.225.2.866.862.866.862l4.01-4.01-1.157-1.156C14.296 1.006 12.005.064 9.51.064 4.296.064.06 4.279.06 9.49a9.508 9.508 0 0 0 2.322 6.236l8.132 8.163L27.507 6.907a3.703 3.703 0 0 1 2.528-.957 3.81 3.81 0 0 1 3.808 3.838 3.723 3.723 0 0 1-.952 2.52L21.597 23.595a2.376 2.376 0 0 1-1.722.71 2.34 2.34 0 0 1-1.696-.738l-.85-.84-3.991 3.99.817.804a8.027 8.027 0 0 0 5.736 2.413h.006a7.939 7.939 0 0 0 5.705-2.408l11.77-11.79a9.457 9.457 0 0 0 1.48-10.125 9.465 9.465 0 0 0-8.6-5.55z" fill="#FFF"/></svg>